<?xml version="1.0" encoding="utf-8"?>
<!-- Generator: Adobe Illustrator 18.0.0, SVG Export Plug-In . SVG Version: 6.00 Build 0)  -->
<!DOCTYPE svg PUBLIC "-//W3C//DTD SVG 1.1//EN" "http://www.w3.org/Graphics/SVG/1.1/DTD/svg11.dtd">
<svg version="1.1" id="Layer_1" xmlns="http://www.w3.org/2000/svg" xmlns:xlink="http://www.w3.org/1999/xlink" x="0px" y="0px"
	 viewBox="0 0 435 430" enable-background="new 0 0 435 430" xml:space="preserve">
<path fill="#0071BC" d="M171.9,4H51.5C26.8,4,5,22.8,5,47.5V168c0,24.7,21.8,46,46.5,46h120.5c24.7,0,43.1-21.3,43.1-46V47.5
	C215,22.8,196.7,4,171.9,4z M178,132.8c0,23.9-19.3,43.2-43.2,43.2H83.2C59.3,176,40,156.7,40,132.8V81.2C40,57.3,59.3,38,83.2,38
	h51.6c23.9,0,43.2,19.3,43.2,43.2V132.8z"/>
<path fill="#0071BC" d="M385.9,4H265.5C240.8,4,219,22.8,219,47.5V168c0,24.7,21.8,46,46.5,46h120.5c24.7,0,43.1-21.3,43.1-46V47.5
	C429,22.8,410.7,4,385.9,4z M392,132.8c0,23.9-19.3,43.2-43.2,43.2h-51.6c-23.9,0-43.2-19.3-43.2-43.2V81.2
	c0-23.9,19.3-43.2,43.2-43.2h51.6c23.9,0,43.2,19.3,43.2,43.2V132.8z"/>
<path fill="#0071BC" d="M172.4,217H52c-24.7,0-47,18.8-47,43.5V381c0,24.7,22.3,46,47,46h120.5c24.7,0,42.6-21.3,42.6-46V260.5
	C215,235.8,197.2,217,172.4,217z M178,345.8c0,23.9-19.3,43.2-43.2,43.2H83.2C59.3,389,40,369.7,40,345.8v-51.6
	c0-23.9,19.3-43.2,43.2-43.2h51.6c23.9,0,43.2,19.3,43.2,43.2V345.8z"/>
<path fill="#0071BC" d="M386.4,217H266c-24.7,0-47,18.8-47,43.5V381c0,24.7,22.3,46,47,46h120.5c24.7,0,42.6-21.3,42.6-46V260.5
	C429,235.8,411.2,217,386.4,217z M392,345.8c0,23.9-19.3,43.2-43.2,43.2h-51.6c-23.9,0-43.2-19.3-43.2-43.2v-51.6
	c0-23.9,19.3-43.2,43.2-43.2h51.6c23.9,0,43.2,19.3,43.2,43.2V345.8z"/>
</svg>
